<svg width="64" height="69" viewBox="0 0 64 69" fill="none" xmlns="http://www.w3.org/2000/svg">
<g clip-path="url(#clip0_92_9360)">
<path d="M47.9987 23C47.9987 13.4838 40.8254 5.75 31.9987 5.75C23.172 5.75 15.9987 13.4838 15.9987 23C15.9987 35.9375 31.9987 54.625 31.9987 54.625C31.9987 54.625 47.9987 35.9375 47.9987 23ZM26.6654 23C26.6654 19.8375 29.0654 17.25 31.9987 17.25C34.932 17.25 37.332 19.8375 37.332 23C37.332 26.1625 34.9587 28.75 31.9987 28.75C29.0654 28.75 26.6654 26.1625 26.6654 23ZM13.332 57.5V63.25H50.6654V57.5H13.332Z" fill="#C91800"/>
</g>
<defs>
<clipPath id="clip0_92_9360">
<rect width="64" height="69" fill="white"/>
</clipPath>
</defs>
</svg>
